<svg xmlns="http://www.w3.org/2000/svg" height="20" viewBox="0 0 20 20" width="20" version="1.1" id="svg1">
  <defs/>
  <path id="rect1" fill="#ffffff" d="M1.368,0 L18.632,0 A1.368 1.368 0 0 1 20,1.368 L20,18.632 A1.368 1.368 0 0 1 18.632,20 L1.368,20 A1.368 1.368 0 0 1 0,18.632 L0,1.368 A1.368 1.368 0 0 1 1.368,0 Z"/>
  <path id="path1" fill="#2e3436" d="M6,4 C6,3.734 6.105,3.48 6.293,3.293 C6.684,2.902 7.316,2.902 7.707,3.293 L13.707,9.293 C13.895,9.48 14,9.734 14,10 C14,10.266 13.895,10.52 13.707,10.707 L7.707,16.707 C7.316,17.098 6.684,17.098 6.293,16.707 C6.105,16.52 6,16.266 6,16 C6,15.734 6.105,15.48 6.293,15.293 L11.586,10 L6.293,4.707 C6.105,4.52 6,4.266 6,4 Z"/>
</svg>
