<svg xmlns="http://www.w3.org/2000/svg" height="20" viewBox="0 0 20 20" width="20" version="1.1" id="svg1">
  <defs/>
  <path id="rect1" fill="#ffffff" d="M1.368,0 L18.632,0 A1.368 1.368 0 0 1 20,1.368 L20,18.632 A1.368 1.368 0 0 1 18.632,20 L1.368,20 A1.368 1.368 0 0 1 0,18.632 L0,1.368 A1.368 1.368 0 0 1 1.368,0 Z"/>
  <path id="path1" fill="#2e3436" d="M14,4 C14,3.734 13.895,3.48 13.707,3.293 C13.316,2.902 12.684,2.902 12.293,3.293 L6.293,9.293 C6.105,9.48 6,9.734 6,10 C6,10.266 6.105,10.52 6.293,10.707 L12.293,16.707 C12.684,17.098 13.316,17.098 13.707,16.707 C13.895,16.52 14,16.266 14,16 C14,15.734 13.895,15.48 13.707,15.293 L8.414,10 L13.707,4.707 C13.895,4.52 14,4.266 14,4 Z"/>
</svg>
