<svg xmlns="http://www.w3.org/2000/svg" height="20" viewBox="0 0 20 20" width="20" version="1.1" id="svg1">
  <defs/>
  <path id="rect1" fill="#ffffff" d="M1.368,0 L18.632,0 A1.368 1.368 0 0 1 20,1.368 L20,18.632 A1.368 1.368 0 0 1 18.632,20 L1.368,20 A1.368 1.368 0 0 1 0,18.632 L0,1.368 A1.368 1.368 0 0 1 1.368,0 Z"/>
  <path id="path1" fill="#2e3436" d="M10,2 C5.59,2 2,5.59 2,10 C2,14.41 5.59,18 10,18 C14.41,18 18,14.41 18,10 C18,5.59 14.41,2 10,2 Z M10,4 C13.332,4 16,6.668 16,10 C16,13.332 13.332,16 10,16 C6.668,16 4,13.332 4,10 C4,6.668 6.668,4 10,4 Z M10,5.875 C9.379,5.875 8.875,6.379 8.875,7 C8.875,7.621 9.379,8.125 10,8.125 C10.621,8.125 11.125,7.621 11.125,7 C11.125,6.379 10.621,5.875 10,5.875 Z M8.477,9 C8.211,9.012 8,9.23 8,9.5 C8,9.777 8.223,10 8.5,10 L9,10 L9,13 L8.5,13 C8.223,13 8,13.223 8,13.5 C8,13.777 8.223,14 8.5,14 L11.5,14 C11.777,14 12,13.777 12,13.5 C12,13.223 11.777,13 11.5,13 L11,13 L11,9 L8.5,9 C8.492,9 8.484,9 8.477,9 Z"/>
</svg>
