<svg xmlns="http://www.w3.org/2000/svg" height="20" viewBox="0 0 20 20" width="20" version="1.1" id="svg1">
  <defs/>
  <path id="rect1" fill="#ffffff" d="M1.368,0 L18.632,0 A1.368 1.368 0 0 1 20,1.368 L20,18.632 A1.368 1.368 0 0 1 18.632,20 L1.368,20 A1.368 1.368 0 0 1 0,18.632 L0,1.368 A1.368 1.368 0 0 1 1.368,0 Z"/>
  <path id="path1" fill="#2e3436" d="M10.915,3.879 C10.34,3.887 9.762,3.965 9.188,4.118 C6.133,4.938 4.001,7.715 4.001,10.879 L2.001,10.879 L2.001,11.879 L2.008,11.879 C2.005,12.145 2.11,12.399 2.294,12.586 L4.294,14.586 C4.684,14.977 5.317,14.977 5.708,14.586 L7.708,12.586 C7.891,12.399 7.997,12.145 7.997,11.879 L8.001,11.879 L8.001,10.879 L6.001,10.879 C6.001,8.61 7.516,6.637 9.708,6.047 C11.895,5.461 14.196,6.415 15.333,8.379 C16.465,10.344 16.141,12.809 14.536,14.415 C14.145,14.805 14.145,15.438 14.536,15.829 C14.926,16.219 15.559,16.219 15.95,15.829 C18.188,13.59 18.645,10.118 17.063,7.379 C15.876,5.325 13.758,4.055 11.485,3.899 C11.294,3.883 11.106,3.875 10.915,3.879 Z"/>
</svg>
