<svg xmlns="http://www.w3.org/2000/svg" height="20" viewBox="0 0 20 20" width="20" version="1.1" id="svg1">
  <defs/>
  <path id="rect1" fill="#ffffff" d="M1.368,0 L18.632,0 A1.368 1.368 0 0 1 20,1.368 L20,18.632 A1.368 1.368 0 0 1 18.632,20 L1.368,20 A1.368 1.368 0 0 1 0,18.632 L0,1.368 A1.368 1.368 0 0 1 1.368,0 Z"/>
  <path id="path1" fill="#2e3436" d="M9.085,3.879 C9.66,3.887 10.238,3.965 10.812,4.118 C13.867,4.938 15.999,7.715 15.999,10.879 L17.999,10.879 L17.999,11.879 L17.992,11.879 C17.995,12.145 17.89,12.399 17.706,12.586 L15.706,14.586 C15.316,14.977 14.683,14.977 14.292,14.586 L12.292,12.586 C12.105,12.399 12.003,12.145 12.003,11.879 L11.999,11.879 L11.999,10.879 L13.999,10.879 C13.999,8.61 12.484,6.637 10.292,6.047 C8.105,5.461 5.804,6.415 4.667,8.379 C3.535,10.344 3.859,12.809 5.464,14.415 C5.855,14.805 5.855,15.438 5.464,15.829 C5.074,16.219 4.441,16.219 4.05,15.829 C1.812,13.59 1.355,10.118 2.937,7.379 C4.124,5.325 6.242,4.055 8.515,3.899 C8.702,3.883 8.894,3.875 9.085,3.879 Z"/>
</svg>
