<svg xmlns="http://www.w3.org/2000/svg" height="20" viewBox="0 0 20 20" width="20" version="1.1" id="svg5">
  <defs/>
  <path id="rect1" fill="#ffffff" d="M1.368,0 L18.632,0 A1.368 1.368 0 0 1 20,1.368 L20,18.632 A1.368 1.368 0 0 1 18.632,20 L1.368,20 A1.368 1.368 0 0 1 0,18.632 L0,1.368 A1.368 1.368 0 0 1 1.368,0 Z"/>
  <path id="path1" fill="#2e3436" d="M3,5 L17,5 C17.551,5 18,5.449 18,6 C18,6.551 17.551,7 17,7 L3,7 C2.449,7 2,6.551 2,6 C2,5.449 2.449,5 3,5 Z"/>
  <path id="path2" fill="#2e3436" d="M6,6 L6,4.5 C6,3.113 7.113,2 8.5,2 L11.48,2 C12.863,2 13.98,3.113 13.98,4.5 L13.98,6 L11.98,6 L11.98,4.5 C11.98,4.23 11.75,4 11.48,4 L8.5,4 C8.23,4 8,4.23 8,4.5 L8,6 Z"/>
  <path id="path3" fill="#2e3436" d="M6,6 L6,15 C6,15.547 6.453,16 7,16 L13,16 C13.547,16 14,15.547 14,15 L14,6 L16,6 L16,15 C16,16.66 14.66,18 13,18 L7,18 C5.34,18 4,16.66 4,15 L4,6 Z"/>
  <path id="path4" fill="#2e3436" d="M9,9 L9,14 C9,14.277 8.777,14.5 8.5,14.5 C8.223,14.5 8,14.277 8,14 L8,9 C8,8.723 8.223,8.5 8.5,8.5 C8.777,8.5 9,8.723 9,9 Z"/>
  <path id="path5" fill="#2e3436" d="M12,9 L12,14 C12,14.277 11.777,14.5 11.5,14.5 C11.223,14.5 11,14.277 11,14 L11,9 C11,8.723 11.223,8.5 11.5,8.5 C11.777,8.5 12,8.723 12,9 Z"/>
</svg>
