<svg xmlns="http://www.w3.org/2000/svg" height="20" viewBox="0 0 20 20" width="20" version="1.1" id="svg2">
  <defs/>
  <path id="rect1" fill="#ffffff" d="M1.368,0 L18.632,0 A1.368 1.368 0 0 1 20,1.368 L20,18.632 A1.368 1.368 0 0 1 18.632,20 L1.368,20 A1.368 1.368 0 0 1 0,18.632 L0,1.368 A1.368 1.368 0 0 1 1.368,0 Z"/>
  <path id="path1" fill="#2e3436" d="M4,10 C3.449,10 3,10.449 3,11 C3,11.551 3.449,12 4,12 L6.586,12 L3.293,15.293 C2.902,15.684 2.902,16.316 3.293,16.707 C3.684,17.098 4.316,17.098 4.707,16.707 L8,13.414 L8,16 C8,16.551 8.449,17 9,17 C9.551,17 10,16.551 10,16 L10,10 Z"/>
  <path id="path2" fill="#2e3436" d="M16,10 C16.551,10 17,9.551 17,9 C17,8.449 16.551,8 16,8 L13.414,8 L16.707,4.707 C17.098,4.316 17.098,3.684 16.707,3.293 C16.316,2.902 15.684,2.902 15.293,3.293 L12,6.586 L12,4 C12,3.449 11.551,3 11,3 C10.449,3 10,3.449 10,4 L10,10 Z"/>
</svg>
