<svg xmlns="http://www.w3.org/2000/svg" height="20" viewBox="0 0 20 20" width="20" version="1.1" id="svg2">
  <defs/>
  <path id="rect1" fill="#ffffff" d="M18.632,0 L1.368,0 C0.613,0 0,0.613 0,1.368 L0,18.632 C0,19.387 0.613,20 1.368,20 L18.632,20 C19.387,20 20,19.387 20,18.632 L20,1.368 C20,0.613 19.387,0 18.632,0 Z"/>
  <path id="path1" fill="#2e3436" d="M3,11 C2.449,11 2,11.449 2,12 L2,18 L8,18 C8.551,18 9,17.551 9,17 C9,16.449 8.551,16 8,16 L5.414,16 L8.707,12.707 C9.098,12.316 9.098,11.684 8.707,11.293 C8.52,11.105 8.266,11 8,11 C7.734,11 7.48,11.105 7.293,11.293 L4,14.586 L4,12 C4,11.449 3.551,11 3,11 Z"/>
  <path id="path2" fill="#2e3436" d="M17,9 C17.551,9 18,8.551 18,8 L18,2 L12,2 C11.449,2 11,2.449 11,3 C11,3.551 11.449,4 12,4 L14.586,4 L11.293,7.293 C10.902,7.684 10.902,8.316 11.293,8.707 C11.48,8.895 11.734,9 12,9 C12.266,9 12.52,8.895 12.707,8.707 L16,5.414 L16,8 C16,8.551 16.449,9 17,9 Z"/>
</svg>
