<svg xmlns="http://www.w3.org/2000/svg" height="20" viewBox="0 0 20 20" width="20" version="1.1" id="svg1">
  <defs/>
  <path id="rect1" fill="#ffffff" d="M1.368,0 L18.632,0 A1.368 1.368 0 0 1 20,1.368 L20,18.632 A1.368 1.368 0 0 1 18.632,20 L1.368,20 A1.368 1.368 0 0 1 0,18.632 L0,1.368 A1.368 1.368 0 0 1 1.368,0 Z"/>
  <path id="path1" fill="#2e3436" d="M6,3 C4.34,3 3,4.34 3,6 L3,14 C3,15.66 4.34,17 6,17 L14,17 C15.66,17 17,15.66 17,14 L17,6 C17,4.34 15.66,3 14,3 Z M9,6 L11,6 L11,9 L14,9 L14,11 L11,11 L11,14 L9,14 L9,11 L6,11 L6,9 L9,9 Z"/>
</svg>
