<svg xmlns="http://www.w3.org/2000/svg" height="20" viewBox="0 0 20 20" width="20" version="1.1" id="svg1">
  <defs/>
  <path id="rect1" fill="#ffffff" d="M18.632,0 L1.368,0 C0.613,0 0,0.613 0,1.368 L0,18.632 C0,19.387 0.613,20 1.368,20 L18.632,20 C19.387,20 20,19.387 20,18.632 L20,1.368 C20,0.613 19.387,0 18.632,0 Z"/>
  <path id="path1" fill="#2e3436" d="M6,3 C4.34,3 3,4.34 3,6 L3,14 C3,15.66 4.34,17 6,17 L14,17 C15.66,17 17,15.66 17,14 L17,6 C17,4.34 15.66,3 14,3 Z M6,9 L14,9 L14,11 L6,11 Z"/>
</svg>
