<?xml version="1.0" encoding="UTF-8" standalone="no"?>
<svg
   width="16px"
   height="16px"
   version="1.1"
   viewBox="0 0 16 16"
   id="svg1"
   sodipodi:docname="aspect-ratio-original-symbolic.svg"
   inkscape:version="1.4 (e7c3feb100, 2024-10-09)"
   xmlns:inkscape="http://www.inkscape.org/namespaces/inkscape"
   xmlns:sodipodi="http://sodipodi.sourceforge.net/DTD/sodipodi-0.dtd"
   xmlns="http://www.w3.org/2000/svg"
   xmlns:svg="http://www.w3.org/2000/svg">
  <defs
     id="defs1">
    <inkscape:path-effect
       effect="join_type"
       id="path-effect5"
       is_visible="true"
       lpeversion="1"
       linecap_type="round"
       line_width="1"
       linejoin_type="round"
       miter_limit="100"
       attempt_force_join="true" />
    <inkscape:path-effect
       effect="join_type"
       id="path-effect4"
       is_visible="true"
       lpeversion="1"
       linecap_type="round"
       line_width="2"
       linejoin_type="round"
       miter_limit="100"
       attempt_force_join="true" />
    <inkscape:path-effect
       effect="join_type"
       id="path-effect3"
       is_visible="true"
       lpeversion="1"
       linecap_type="round"
       line_width="2"
       linejoin_type="round"
       miter_limit="100"
       attempt_force_join="true" />
  </defs>
  <sodipodi:namedview
     id="namedview1"
     pagecolor="#ffffff"
     bordercolor="#000000"
     borderopacity="0.25"
     inkscape:showpageshadow="2"
     inkscape:pageopacity="0.0"
     inkscape:pagecheckerboard="0"
     inkscape:deskcolor="#d1d1d1"
     showgrid="true"
     inkscape:zoom="16"
     inkscape:cx="-16.25"
     inkscape:cy="12.46875"
     inkscape:window-width="5120"
     inkscape:window-height="1371"
     inkscape:window-x="0"
     inkscape:window-y="0"
     inkscape:window-maximized="1"
     inkscape:current-layer="svg1">
    <inkscape:grid
       id="grid1"
       units="px"
       originx="0"
       originy="0"
       spacingx="1"
       spacingy="1"
       empcolor="#0099e5"
       empopacity="0.30196078"
       color="#0099e5"
       opacity="0.14901961"
       empspacing="5"
       enabled="true"
       visible="true" />
  </sodipodi:namedview>
  <path
     x="1"
     y="6.9972367"
     width="14"
     height="8.000062"
     rx="2"
     ry="2"
     fill="none"
     stroke="#373737"
     stroke-linejoin="round"
     stroke-miterlimit="12.8"
     stroke-width="2"
     id="rect1"
     inkscape:path-effect="#path-effect3"
     style="fill:#373737;fill-rule:nonzero;stroke:none"
     sodipodi:type="rect"
     d="m 13,7.9972367 c 0.571297,0 1,0.4287028 1,1 v 4.0000623 c 0,0.571297 -0.428703,1 -1,1 H 3 c -0.5712972,0 -1,-0.428703 -1,-1 V 8.9972367 c 0,-0.5712972 0.4287028,-1 1,-1 z m -13,1 v 4.0000623 c 0,1.657552 1.342448,3 3,3 h 10 c 1.657552,0 3,-1.342448 3,-3 V 8.9972367 c 0,-1.657552 -1.342448,-3 -3,-3 H 3 c -1.657552,0 -3,1.342448 -3,3 z" />
  <path
     x="-15.026803"
     y="1.0295049"
     width="14"
     height="8.000062"
     rx="2"
     ry="2"
     fill="none"
     stroke="#373737"
     stroke-linejoin="round"
     stroke-miterlimit="12.8"
     stroke-width="2"
     id="rect2"
     transform="rotate(-90)"
     inkscape:path-effect="#path-effect4"
     style="fill:#373737;fill-rule:nonzero;stroke:none"
     sodipodi:type="rect"
     d="m -3.026803,2.0295049 c 0.5712972,0 1,0.4287028 1,1 v 4.000062 c 0,0.5712972 -0.4287028,1 -1,1 h -10 c -0.571297,0 -1,-0.4287028 -1,-1 v -4.000062 c 0,-0.5712972 0.428703,-1 1,-1 z m -13,1 v 4.000062 c 0,1.657552 1.342448,3.0000001 3,3.0000001 h 10 c 1.657552,0 2.99999998,-1.3424481 2.99999998,-3.0000001 v -4.000062 c 0,-1.657552 -1.34244798,-3 -2.99999998,-3 h -10 c -1.657552,0 -3,1.342448 -3,3 z" />
  <path
     x="-15.492699"
     y="0.5514521"
     width="12.008512"
     height="11.961659"
     rx="2"
     ry="2"
     fill="none"
     stroke="#373737"
     stroke-linejoin="round"
     stroke-miterlimit="12.8"
     stroke-width="2"
     id="rect3"
     transform="rotate(-90)"
     style="fill:#373737;fill-rule:nonzero;stroke:none;stroke-width:1;stroke-dasharray:none"
     inkscape:path-effect="#path-effect5"
     sodipodi:type="rect"
     d="m -5.4841871,1.0514521 c 0.8396486,0 1.5,0.6603514 1.5,1.5 v 7.9616599 c 0,0.839648 -0.6603514,1.5 -1.5,1.5 h -8.0085119 c -0.839648,0 -1.5,-0.660352 -1.5,-1.5 V 2.5514521 c 0,-0.8396486 0.660352,-1.5 1.5,-1.5 z m -10.5085119,1.5 v 7.9616599 c 0,1.384415 1.115584,2.5 2.5,2.5 h 8.0085119 c 1.3844159,0 2.5,-1.115585 2.5,-2.5 V 2.5514521 c 0,-1.3844159 -1.1155841,-2.5 -2.5,-2.5 h -8.0085119 c -1.384416,0 -2.5,1.1155841 -2.5,2.5 z" />
</svg>
