<?xml version="1.0" encoding="UTF-8"?>
<svg width="16px" height="16px" version="1.1" viewBox="0 0 16 16" xmlns="http://www.w3.org/2000/svg">
 <path d="m10.875 10.062c-0.8125 0.14844-1.1055 1.1602-0.5 1.7188l3 3c0.95703 0.9375 2.3633-0.5 1.4062-1.4375l-3-3c-0.23438-0.23828-0.57422-0.34766-0.90625-0.28125z" fill="#222"/>
 <path d="m6.5703 0.0625c-3.5781 0-6.5 2.9219-6.5 6.5s2.9219 6.5 6.5 6.5c3.5781 0 6.5-2.9219 6.5-6.5s-2.9219-6.5-6.5-6.5zm0 2c2.5 0 4.5 2.0039 4.5 4.5 0 2.5-2 4.5-4.5 4.5-2.4961 0-4.5-2-4.5-4.5 0-2.4961 2.0039-4.5 4.5-4.5z" fill="#222"/>
 <g transform="translate(-14.443 -19.459)" fill="#222">
  <path d="m21.023 23c0.53906 0 0.97656 0.4375 0.97656 0.97656v4.0898c0 0.53906-0.4375 0.97656-0.97656 0.97656-0.53906 0-0.97656-0.4375-0.97656-0.97656v-4.0898c0-0.53906 0.4375-0.97656 0.97656-0.97656z"/>
  <path d="m19.027 25h3.9727c0.55078 0 1 0.44922 1 1s-0.44922 1-1 1h-3.9727c-0.55078 0-1-0.44922-1-1s0.44922-1 1-1z"/>
 </g>
</svg>
